<!DOCTYPE svg PUBLIC "-//W3C//DTD SVG 1.1//EN" "http://www.w3.org/Graphics/SVG/1.1/DTD/svg11.dtd">
<!-- Uploaded to: SVG Repo, www.svgrepo.com, Transformed by: SVG Repo Mixer Tools -->
<svg width="800px" height="800px" viewBox="0 0 32 32" enable-background="new 0 0 32 32" version="1.1" xml:space="preserve" xmlns="http://www.w3.org/2000/svg" xmlns:xlink="http://www.w3.org/1999/xlink" fill="#E22A90" stroke="#E22A90">
<g id="SVGRepo_bgCarrier" stroke-width="0"/>
<g id="SVGRepo_tracerCarrier" stroke-linecap="round" stroke-linejoin="round"/>
<g id="SVGRepo_iconCarrier"> <g id="Home"/> <g id="Print"/> <g id="Mail"/> <g id="Camera"/> <g id="Video"/> <g id="Film"/> <g id="Message"/> <g id="Telephone"/> <g id="User"/> <g id="File"/> <g id="Folder"/> <g id="Map"/> <g id="Download"/> <g id="Upload"/> <g id="Video_Recorder"/> <g id="Schedule"/> <g id="Cart"/> <g id="Setting"/> <g id="Search"/> <g id="Pencils"/> <g id="Group"/> <g id="Record"/> <g id="Headphone"/> <g id="Music_Player"/> <g id="Sound_On"/> <g id="Sound_Off"/> <g id="Lock"/> <g id="Lock_open"/> <g id="Love"/> <g id="Favorite"/> <g id="Film_1_"/> <g id="Music"/> <g id="Puzzle"/> <g id="Turn_Off"/> <g id="Book"/> <g id="Save"/> <g id="Reload"/> <g id="Trash"/> <g id="Tag"/> <g id="Link"> <g> <path d="M19,19c-0.2,0.2-0.5,0.3-0.7,0.3s-0.5-0.1-0.7-0.3c-0.4-0.4-0.4-1,0-1.4c1.4-1.4,1.9-3.4,1.3-5.2 c-0.3-0.8-0.7-1.6-1.3-2.2l-5.7-5.7c-1-1-2.3-1.5-3.7-1.5C6.8,3,5.5,3.5,4.5,4.5c-2,2-2,5.3,0,7.4l3.4,3.4c0.4,0.4,0.4,1,0,1.4 c-0.4,0.4-1,0.4-1.4,0l-3.4-3.4c-2.8-2.8-2.8-7.4,0-10.2C4.5,1.8,6.3,1,8.2,1c1.9,0,3.7,0.8,5.1,2.1L19,8.8c0.8,0.8,1.5,1.9,1.8,3 C21.6,14.4,20.9,17.1,19,19z" fill="#3C5BA4E22A90"/> </g> <g> <path d="M28.9,28.9c-1.4,1.4-3.2,2.1-5.1,2.1c-1.9,0-3.7-0.8-5.1-2.1L13,23.2c-1.4-1.4-2.1-3.2-2.1-5.1 s0.8-3.7,2.1-5.1c0.4-0.4,1-0.4,1.4,0c0.4,0.4,0.4,1,0,1.4c-1,1-1.5,2.3-1.5,3.7c0,1.4,0.6,2.7,1.5,3.7l5.7,5.7 c1,1,2.3,1.5,3.7,1.5c1.4,0,2.7-0.5,3.7-1.5c2-2,2-5.3,0-7.4l-3.4-3.4c-0.4-0.4-0.4-1,0-1.4c0.4-0.4,1-0.4,1.4,0l3.4,3.4 C31.7,21.5,31.7,26.1,28.9,28.9z" fill="#3C5BA4E22A909C27B0"/> </g> </g> <g id="Like"/> <g id="Bad"/> <g id="Gallery"/> <g id="Add"/> <g id="Close"/> <g id="Forward"/> <g id="Back"/> <g id="Buy"/> <g id="Mac"/> <g id="Laptop"/> </g>
</svg>